<svg width="20" height="20" viewBox="0 0 20 20" fill="none" xmlns="http://www.w3.org/2000/svg">
<path d="M4.16671 18.3334C3.70838 18.3334 3.31616 18.1703 2.99005 17.8442C2.66393 17.5181 2.5006 17.1256 2.50005 16.6667V5.00002C2.50005 4.54169 2.66338 4.14946 2.99005 3.82335C3.31671 3.49724 3.70893 3.33391 4.16671 3.33335H5.00005V1.66669H6.66671V3.33335H13.3334V1.66669H15V3.33335H15.8334C16.2917 3.33335 16.6842 3.49669 17.0109 3.82335C17.3375 4.15002 17.5006 4.54224 17.5 5.00002V16.6667C17.5 17.125 17.337 17.5175 17.0109 17.8442C16.6848 18.1709 16.2923 18.3339 15.8334 18.3334H4.16671ZM4.16671 16.6667H15.8334V8.33335H4.16671V16.6667ZM4.16671 6.66669H15.8334V5.00002H4.16671V6.66669ZM10 11.6667C9.76394 11.6667 9.56616 11.5867 9.40671 11.4267C9.24727 11.2667 9.16727 11.0689 9.16671 10.8334C9.16616 10.5978 9.24616 10.4 9.40671 10.24C9.56727 10.08 9.76505 10 10 10C10.235 10 10.4331 10.08 10.5942 10.24C10.7553 10.4 10.835 10.5978 10.8334 10.8334C10.8317 11.0689 10.7517 11.267 10.5934 11.4275C10.435 11.5881 10.2373 11.6678 10 11.6667ZM6.66671 11.6667C6.4306 11.6667 6.23282 11.5867 6.07338 11.4267C5.91393 11.2667 5.83393 11.0689 5.83338 10.8334C5.83282 10.5978 5.91282 10.4 6.07338 10.24C6.23393 10.08 6.43171 10 6.66671 10C6.90171 10 7.09977 10.08 7.26088 10.24C7.42199 10.4 7.50171 10.5978 7.50005 10.8334C7.49838 11.0689 7.41838 11.267 7.26005 11.4275C7.10171 11.5881 6.90393 11.6678 6.66671 11.6667ZM13.3334 11.6667C13.0973 11.6667 12.8995 11.5867 12.74 11.4267C12.5806 11.2667 12.5006 11.0689 12.5 10.8334C12.4995 10.5978 12.5795 10.4 12.74 10.24C12.9006 10.08 13.0984 10 13.3334 10C13.5684 10 13.7664 10.08 13.9275 10.24C14.0887 10.4 14.1684 10.5978 14.1667 10.8334C14.165 11.0689 14.085 11.267 13.9267 11.4275C13.7684 11.5881 13.5706 11.6678 13.3334 11.6667ZM10 15C9.76394 15 9.56616 14.92 9.40671 14.76C9.24727 14.6 9.16727 14.4022 9.16671 14.1667C9.16616 13.9311 9.24616 13.7334 9.40671 13.5734C9.56727 13.4134 9.76505 13.3334 10 13.3334C10.235 13.3334 10.4331 13.4134 10.5942 13.5734C10.7553 13.7334 10.835 13.9311 10.8334 14.1667C10.8317 14.4022 10.7517 14.6003 10.5934 14.7609C10.435 14.9214 10.2373 15.0011 10 15ZM6.66671 15C6.4306 15 6.23282 14.92 6.07338 14.76C5.91393 14.6 5.83393 14.4022 5.83338 14.1667C5.83282 13.9311 5.91282 13.7334 6.07338 13.5734C6.07338 13.5734 6.43171 13.3334 6.66671 13.3334C6.90171 13.3334 7.09977 13.4134 7.26088 13.5734C7.42199 13.7334 7.50171 13.9311 7.50005 14.1667C7.49838 14.4022 7.41838 14.6003 7.26005 14.7609C7.10171 14.9214 6.90393 15.0011 6.66671 15ZM13.3334 15C13.0973 15 12.8995 14.92 12.74 14.76C12.5806 14.6 12.5006 14.4022 12.5 14.1667C12.4995 13.9311 12.5795 13.7334 12.74 13.5734C12.9006 13.4134 13.0984 13.3334 13.3334 13.3334C13.5684 13.3334 13.7664 13.4134 13.9275 13.5734C14.0887 13.7334 14.1684 13.9311 14.1667 14.1667C14.165 14.4022 14.085 14.6003 13.9267 14.7609C13.7684 14.9214 13.5706 15.0011 13.3334 15Z" fill="#EDEDEF"/>
</svg>
