<svg width="32" height="32" viewBox="0 0 32 32" fill="none" xmlns="http://www.w3.org/2000/svg">
<rect width="32" height="32" rx="2" fill="#F0FEBF"/>
<path fill-rule="evenodd" clip-rule="evenodd" d="M12.93 8.46998C11.6473 8.32764 10.3527 8.32764 9.07 8.46998C8.92183 8.48668 8.78355 8.55261 8.6773 8.65723C8.57106 8.76184 8.50299 8.89909 8.484 9.04698C8.33205 10.3449 8.33205 11.6561 8.484 12.954C8.50324 13.1018 8.57154 13.239 8.67797 13.3434C8.7844 13.4478 8.9228 13.5135 9.071 13.53C10.342 13.672 11.658 13.672 12.929 13.53C13.0772 13.5135 13.2156 13.4478 13.322 13.3434C13.4285 13.239 13.4968 13.1018 13.516 12.954C13.668 11.656 13.668 10.344 13.516 9.04598C13.4968 8.89812 13.4285 8.76099 13.322 8.65655C13.2156 8.55212 13.0772 8.48642 12.929 8.46998M8.903 6.97998C10.2961 6.82536 11.7019 6.82536 13.095 6.97998C14.085 7.08998 14.888 7.86998 15.005 8.87198C15.1705 10.2858 15.1705 11.7141 15.005 13.128C14.9465 13.6126 14.726 14.0632 14.3793 14.4068C14.0327 14.7504 13.5801 14.9668 13.095 15.021C11.713 15.175 10.285 15.175 8.903 15.021C8.41791 14.9668 7.96534 14.7504 7.61865 14.4068C7.27197 14.0632 7.05151 13.6126 6.993 13.128C6.82747 11.7141 6.82747 10.2858 6.993 8.87198C7.05172 8.38757 7.27227 7.93718 7.61894 7.59378C7.9656 7.25039 8.41806 7.0341 8.903 6.97998ZM12.93 18.47C11.6473 18.3276 10.3527 18.3276 9.07 18.47C8.92198 18.4866 8.78381 18.5524 8.67758 18.6568C8.57135 18.7613 8.5032 18.8983 8.484 19.046C8.33197 20.3442 8.33197 21.6557 8.484 22.954C8.50324 23.1018 8.57154 23.239 8.67797 23.3434C8.7844 23.4478 8.9228 23.5135 9.071 23.53C10.342 23.672 11.658 23.672 12.929 23.53C13.0772 23.5135 13.2156 23.4478 13.322 23.3434C13.4285 23.239 13.4968 23.1018 13.516 22.954C13.668 21.656 13.668 20.344 13.516 19.046C13.4968 18.8981 13.4285 18.761 13.322 18.6566C13.2156 18.5521 13.0772 18.4864 12.929 18.47M8.903 16.98C10.2961 16.8254 11.7019 16.8254 13.095 16.98C14.085 17.09 14.888 17.87 15.005 18.872C15.1705 20.2858 15.1705 21.7141 15.005 23.128C14.9463 23.6124 14.7257 24.0628 14.3791 24.4062C14.0324 24.7496 13.5799 24.9659 13.095 25.02C11.713 25.175 10.285 25.175 8.903 25.02C8.41806 24.9659 7.9656 24.7496 7.61894 24.4062C7.27227 24.0628 7.05172 23.6124 6.993 23.128C6.82747 21.7141 6.82747 20.2858 6.993 18.872C7.05172 18.3876 7.27227 17.9372 7.61894 17.5938C7.9656 17.2504 8.41806 17.0341 8.903 16.98ZM22.93 8.46998C21.6473 8.32764 20.3527 8.32764 19.07 8.46998C18.9218 8.48668 18.7836 8.55261 18.6773 8.65723C18.5711 8.76184 18.503 8.89909 18.484 9.04698C18.332 10.3449 18.332 11.6561 18.484 12.954C18.5032 13.1018 18.5715 13.239 18.678 13.3434C18.7844 13.4478 18.9228 13.5135 19.071 13.53C20.342 13.672 21.658 13.672 22.929 13.53C23.0772 13.5135 23.2156 13.4478 23.322 13.3434C23.4285 13.239 23.4968 13.1018 23.516 12.954C23.668 11.656 23.668 10.344 23.516 9.04598C23.4968 8.89812 23.4285 8.76099 23.322 8.65655C23.2156 8.55212 23.0782 8.48642 22.93 8.46998ZM18.903 6.97998C20.2961 6.82536 21.7019 6.82536 23.095 6.97998C24.085 7.08998 24.888 7.86998 25.005 8.87198C25.1705 10.2858 25.1705 11.7141 25.005 13.128C24.9465 13.6126 24.726 14.0632 24.3793 14.4068C24.0327 14.7504 23.5801 14.9668 23.095 15.021C21.713 15.175 20.285 15.175 18.903 15.021C18.4179 14.9668 17.9653 14.7504 17.6187 14.4068C17.272 14.0632 17.0515 13.6126 16.993 13.128C16.8275 11.7141 16.8275 10.2858 16.993 8.87198C17.0517 8.38757 17.2723 7.93718 17.6189 7.59378C17.9656 7.25039 18.4181 7.0341 18.903 6.97998ZM22.93 18.47C21.6473 18.3276 20.3527 18.3276 19.07 18.47C18.922 18.4866 18.7838 18.5524 18.6776 18.6568C18.5714 18.7613 18.5032 18.8983 18.484 19.046C18.332 20.3442 18.332 21.6557 18.484 22.954C18.5032 23.1018 18.5715 23.239 18.678 23.3434C18.7844 23.4478 18.9228 23.5135 19.071 23.53C20.342 23.672 21.658 23.672 22.929 23.53C23.0772 23.5135 23.2156 23.4478 23.322 23.3434C23.4285 23.239 23.4968 23.1018 23.516 22.954C23.668 21.656 23.668 20.344 23.516 19.046C23.4968 18.8981 23.4285 18.761 23.322 18.6566C23.2156 18.5521 23.0782 18.4864 22.93 18.47ZM18.903 16.98C20.2961 16.8254 21.7019 16.8254 23.095 16.98C24.085 17.09 24.888 17.87 25.005 18.872C25.1705 20.2858 25.1705 21.7141 25.005 23.128C24.9463 23.6124 24.7257 24.0628 24.3791 24.4062C24.0324 24.7496 23.5799 24.9659 23.095 25.02C21.713 25.175 20.285 25.175 18.903 25.02C18.4181 24.9659 17.9656 24.7496 17.6189 24.4062C17.2723 24.0628 17.0517 23.6124 16.993 23.128C16.8275 21.7141 16.8275 20.2858 16.993 18.872C17.0517 18.3876 17.2723 17.9372 17.6189 17.5938C17.9656 17.2504 18.4181 17.0341 18.903 16.98Z" fill="#7DA000"/>
</svg>
