<svg width="20" height="20" viewBox="0 0 20 20" fill="none" xmlns="http://www.w3.org/2000/svg">
<path fill-rule="evenodd" clip-rule="evenodd" d="M12.4564 13.7825C11.1873 14.7175 9.6118 15.1383 8.04554 14.9608C6.47929 14.7833 5.03795 14.0205 4.01029 12.8253C2.98262 11.6301 2.44453 10.0907 2.50382 8.51549C2.5631 6.94033 3.21538 5.44573 4.32998 4.33114C5.44457 3.21654 6.93917 2.56426 8.51433 2.50498C10.0895 2.44569 11.6289 2.98378 12.8241 4.01145C14.0193 5.03911 14.7821 6.48045 14.9596 8.0467C15.1372 9.61296 14.7163 11.1884 13.7814 12.4575L17.2251 15.9C17.3172 15.9859 17.3911 16.0894 17.4424 16.2044C17.4936 16.3194 17.5211 16.4435 17.5234 16.5694C17.5256 16.6953 17.5024 16.8203 17.4553 16.937C17.4081 17.0538 17.3379 17.1598 17.2489 17.2488C17.1599 17.3379 17.0539 17.408 16.9371 17.4552C16.8204 17.5023 16.6953 17.5255 16.5695 17.5233C16.4436 17.5211 16.3195 17.4935 16.2045 17.4423C16.0895 17.391 15.986 17.3171 15.9001 17.225L12.4564 13.7825ZM13.1251 8.75003C13.1251 9.91035 12.6642 11.0232 11.8437 11.8436C11.0232 12.6641 9.91045 13.125 8.75012 13.125C7.5898 13.125 6.477 12.6641 5.65653 11.8436C4.83606 11.0232 4.37512 9.91035 4.37512 8.75003C4.37512 7.58971 4.83606 6.47691 5.65653 5.65644C6.477 4.83597 7.5898 4.37503 8.75012 4.37503C9.91045 4.37503 11.0232 4.83597 11.8437 5.65644C12.6642 6.47691 13.1251 7.58971 13.1251 8.75003Z" fill="#EDEDEF"/>
</svg>
