<svg width="32" height="32" viewBox="0 0 32 32" fill="none" xmlns="http://www.w3.org/2000/svg">
<path fill-rule="evenodd" clip-rule="evenodd" d="M14.0133 6.96024C13.1853 7.18424 12.412 7.53491 11.8733 8.02024C10.4027 9.34691 9.804 11.1442 9.804 14.3842C9.804 16.6936 8.48933 18.8802 7.54266 20.2962C7.33733 20.6056 7.27333 20.9002 7.28533 21.0776C7.29066 21.1576 7.30933 21.1949 7.31733 21.2082C7.32266 21.2176 7.33866 21.2429 7.40266 21.2776C8.32533 21.7709 9.71733 22.1309 11.3267 22.3589C12.8757 22.5668 14.4371 22.6697 16 22.6669C16.3536 22.6669 16.6928 22.8074 16.9428 23.0574C17.1929 23.3075 17.3333 23.6466 17.3333 24.0002C17.3333 24.3539 17.1929 24.693 16.9428 24.9431C16.6928 25.1931 16.3536 25.3336 16 25.3336C14.496 25.3336 12.688 25.2469 10.952 25.0002C9.24266 24.7562 7.48133 24.3429 6.14533 23.6296C5.16266 23.1042 4.688 22.1896 4.62533 21.2576C4.564 20.3789 4.86133 19.5109 5.32533 18.8162C6.28133 17.3842 7.13733 15.8042 7.13733 14.3842C7.13733 10.8362 7.79333 8.10824 10.088 6.04024C11.0547 5.16824 12.2693 4.67091 13.3133 4.38691C14.1888 4.14414 15.0916 4.0142 16 4.00024C16.3536 4.00024 16.6928 4.14072 16.9428 4.39077C17.1929 4.64082 17.3333 4.97996 17.3333 5.33358C17.3333 5.6872 17.1929 6.02634 16.9428 6.27639C16.6928 6.52643 16.3536 6.66691 16 6.66691C15.592 6.66691 14.832 6.73624 14.0133 6.96024Z" fill="#EDEDEF"/>
<path fill-rule="evenodd" clip-rule="evenodd" d="M17.9867 6.96024C18.8147 7.18424 19.588 7.53491 20.1267 8.02024C21.5973 9.34691 22.196 11.1442 22.196 14.3842C22.196 16.6936 23.5107 18.8802 24.4573 20.2962C24.6627 20.6056 24.7267 20.9002 24.7147 21.0776C24.7153 21.1232 24.7043 21.1681 24.6827 21.2082C24.6773 21.2176 24.6613 21.2429 24.5973 21.2776C23.6747 21.7709 22.2827 22.1309 20.6733 22.3589C19.1243 22.5668 17.5629 22.6697 16 22.6669C15.6464 22.6669 15.3072 22.8074 15.0572 23.0574C14.8071 23.3075 14.6667 23.6466 14.6667 24.0002C14.6667 24.3539 14.8071 24.693 15.0572 24.9431C15.3072 25.1931 15.6464 25.3336 16 25.3336C17.504 25.3336 19.3107 25.2469 21.048 25.0002C22.7573 24.7562 24.5187 24.3429 25.8547 23.6296C26.8373 23.1042 27.312 22.1896 27.3747 21.2576C27.436 20.3789 27.1387 19.5109 26.6747 18.8162C25.7187 17.3842 24.8627 15.8042 24.8627 14.3842C24.8627 10.8362 24.2067 8.10824 21.912 6.04024C20.9453 5.16824 19.7307 4.67091 18.6867 4.38691C17.8112 4.14414 16.9084 4.0142 16 4.00024C15.6464 4.00024 15.3072 4.14072 15.0572 4.39077C14.8071 4.64082 14.6667 4.97996 14.6667 5.33358C14.6667 5.6872 14.8071 6.02634 15.0572 6.27639C15.3072 6.52643 15.6464 6.66691 16 6.66691C16.408 6.66691 17.168 6.73624 17.9867 6.96024Z" fill="#EDEDEF"/>
<path d="M19.5293 4.90699C19.5293 5.83366 17.668 4.96299 16.196 4.96299C14.724 4.96299 12.8627 5.83366 12.8627 4.90566C12.8627 3.97899 14.196 2.66699 16.196 2.66699C18.196 2.66699 19.5293 3.97899 19.5293 4.90699Z" fill="#EDEDEF"/>
<path fill-rule="evenodd" clip-rule="evenodd" d="M13.3333 24.0002C13.3333 24.7075 13.6143 25.3858 14.1144 25.8859C14.6145 26.386 15.2927 26.6669 16 26.6669C16.7072 26.6669 17.3855 26.386 17.8856 25.8859C18.3857 25.3858 18.6667 24.7075 18.6667 24.0002H21.3333C21.3333 25.4147 20.7714 26.7713 19.7712 27.7715C18.771 28.7717 17.4145 29.3336 16 29.3336C14.5855 29.3336 13.2289 28.7717 12.2288 27.7715C11.2286 26.7713 10.6667 25.4147 10.6667 24.0002H13.3333Z" fill="#EDEDEF"/>
</svg>
