<svg width="16" height="16" viewBox="0 0 16 16" fill="none" xmlns="http://www.w3.org/2000/svg">
<path d="M4.00916 5.77732C3.96249 5.45266 3.86182 5.06666 3.74116 4.60532L3.38116 3.22132L3.37449 3.19666C3.85 2.73812 4.39102 2.3528 4.97982 2.05332L6.06783 2.87866C6.44116 3.16132 6.75449 3.39932 7.03249 3.56332C7.17782 3.64999 7.32382 3.72199 7.47649 3.77399V5.78866C7.39471 5.82688 7.31671 5.87488 7.24249 5.93266L5.95449 6.94532C5.90734 6.98293 5.86279 7.02369 5.82116 7.06732L4.03516 6.29332C4.04436 6.12086 4.03609 5.94792 4.00916 5.77732ZM2.69649 6.80199C2.49982 6.97132 2.22316 7.15999 1.80649 7.44266L1.33716 7.76199C1.38209 6.45027 1.81475 5.18128 2.58049 4.11532L2.76716 4.83066C2.89582 5.32599 2.98116 5.65732 3.01916 5.92066C3.05582 6.17132 3.04049 6.30866 2.99916 6.41932C2.95916 6.52932 2.88316 6.64132 2.69649 6.80199ZM3.53382 11.2567C3.99716 11.2567 4.38716 11.2567 4.70649 11.294C4.87449 11.314 5.03516 11.3453 5.18849 11.3967L6.13182 10.162C6.09766 10.0943 6.06934 10.0238 6.04716 9.95132L5.53983 8.26666C5.51595 8.18416 5.50009 8.09954 5.49249 8.01399L3.67449 7.22732C3.57653 7.34801 3.46738 7.45918 3.34849 7.55932C3.10316 7.77066 2.77782 7.99132 2.39116 8.25466L1.39649 8.92999C1.50979 9.74771 1.7755 10.5369 2.17982 11.2567H3.53382ZM7.86116 6.71866C7.89404 6.69215 7.93493 6.67758 7.97716 6.67732C8.0176 6.67732 8.05649 6.6911 8.09383 6.71866L9.38182 7.73066C9.41738 7.75821 9.44205 7.7951 9.45582 7.84132C9.46933 7.88633 9.46933 7.93432 9.45582 7.97932L8.95049 9.66332C8.93814 9.70623 8.91303 9.74436 8.87849 9.77266C8.84508 9.80021 8.80313 9.8153 8.75983 9.81532H7.19516C7.15177 9.81511 7.10981 9.79979 7.07649 9.77199C7.04206 9.74387 7.01696 9.70599 7.00449 9.66332L6.49849 7.97932C6.48498 7.93432 6.48498 7.88633 6.49849 7.84132C6.51132 7.79759 6.53741 7.75892 6.57316 7.73066L7.86116 6.71866ZM8.91716 3.58399C9.19849 3.42599 9.51716 3.19466 9.89582 2.92066L11.0558 2.07932C11.6301 2.37773 12.1579 2.75817 12.6225 3.20866L12.2585 4.60532C12.1385 5.06666 12.0378 5.45266 11.9905 5.77732C11.9637 5.94704 11.9548 6.11908 11.9638 6.29066L10.1352 7.06866C10.0929 7.02426 10.0477 6.98283 9.99982 6.94466L8.71183 5.93199C8.63939 5.87515 8.56065 5.82683 8.47716 5.78799V3.78132C8.62782 3.73332 8.77316 3.66466 8.91716 3.58399ZM7.54182 2.70199C7.31982 2.57066 7.05183 2.36866 6.65049 2.06399L6.06183 1.61732C6.68818 1.42841 7.33893 1.33271 7.99316 1.33332C8.68116 1.33332 9.34516 1.43799 9.96982 1.63199L9.33249 2.09399C8.92449 2.38932 8.65249 2.58599 8.42782 2.71199C8.21449 2.83199 8.08982 2.86132 7.98382 2.85999C7.87782 2.85866 7.75383 2.82666 7.54249 2.70199M12.6505 7.55999C12.8958 7.77066 13.2212 7.99199 13.6078 8.25466L14.5878 8.91999C14.4755 9.7412 14.2096 10.5339 13.8038 11.2567H12.5652C12.1018 11.2567 11.7118 11.2567 11.3925 11.294C11.2221 11.3119 11.0542 11.3486 10.8918 11.4033L9.83183 10.1433C9.86208 10.0814 9.88749 10.0172 9.90783 9.95132L10.4145 8.26666C10.4389 8.18399 10.4545 8.10066 10.4612 8.01666L12.3225 7.22466C12.4185 7.34377 12.5278 7.45532 12.6505 7.55932M9.87183 12.418C9.73783 12.7153 9.61449 13.094 9.46782 13.5473L9.13716 14.5687C8.42021 14.6936 7.68763 14.7004 6.96849 14.5887L6.63116 13.5473C6.48449 13.094 6.36116 12.7153 6.22716 12.4173C6.16104 12.2695 6.0816 12.128 5.98982 11.9947L6.91649 10.782C7.00671 10.8042 7.0996 10.8153 7.19516 10.8153H8.75983C8.86205 10.8153 8.96138 10.8027 9.05782 10.7773L10.0972 12.012C10.0104 12.1403 9.93502 12.2759 9.87183 12.4173M5.68849 13.882C5.53049 13.3953 5.42449 13.07 5.31516 12.83C5.21182 12.6 5.12649 12.4967 5.03649 12.43C4.94849 12.3647 4.82983 12.3153 4.58983 12.2873C4.33582 12.2573 4.00449 12.2567 3.50516 12.2567H2.86716C3.64685 13.1981 4.67037 13.907 5.82583 14.306L5.68849 13.882ZM11.5092 12.2873C11.7632 12.2573 12.0945 12.2567 12.5938 12.2567H13.1172C12.3674 13.1622 11.3915 13.8533 10.2885 14.26L10.4105 13.882C10.5685 13.3953 10.6745 13.07 10.7838 12.83C10.8872 12.6 10.9725 12.4967 11.0625 12.43C11.1505 12.3647 11.2692 12.3153 11.5092 12.2873ZM12.9798 5.91999C13.0185 5.65799 13.1045 5.32599 13.2332 4.83066L13.4152 4.13066C14.1717 5.19049 14.5999 6.44936 14.6465 7.75066L14.1932 7.44332C13.7765 7.15999 13.4998 6.97132 13.3032 6.80199C13.1165 6.64132 13.0412 6.52932 13.0005 6.41999C12.9592 6.30866 12.9438 6.17132 12.9805 5.91999" fill="#7DA000"/>
</svg>
