<svg width="25" height="24" viewBox="0 0 25 24" fill="none" xmlns="http://www.w3.org/2000/svg">
<path fill-rule="evenodd" clip-rule="evenodd" d="M3.13806 4.929C3.43589 4.63125 3.80412 4.41357 4.20856 4.29616C4.613 4.17874 5.04055 4.1654 5.45152 4.25737C5.8625 4.34934 6.24358 4.54364 6.5594 4.82224C6.87522 5.10084 7.11554 5.45471 7.25806 5.851C8.48464 5.36126 9.82475 5.22852 11.1236 5.46811C12.4224 5.7077 13.6269 6.30985 14.5981 7.205L14.8051 7.403L22.5831 15.182C22.7552 15.3542 22.8587 15.5833 22.8739 15.8263C22.8892 16.0693 22.8153 16.3096 22.6661 16.502L22.5831 16.596L20.4621 18.717C20.3122 18.8669 20.1186 18.9653 19.9092 18.998C19.6998 19.0307 19.4855 18.996 19.2971 18.899L19.1861 18.832L15.6021 16.352C14.5777 17.8369 13.0197 18.869 11.2529 19.2331C9.48614 19.5971 7.64701 19.2651 6.11908 18.3062C4.59115 17.3473 3.49239 15.8355 3.05195 14.0862C2.6115 12.3369 2.86338 10.4851 3.75506 8.917C3.40599 8.73612 3.10451 8.47547 2.87509 8.1562C2.64567 7.83694 2.49478 7.46807 2.43467 7.07955C2.37456 6.69103 2.40692 6.29381 2.52914 5.92015C2.65136 5.54648 2.85997 5.20691 3.13806 4.929ZM6.32006 8.818C5.80531 9.33383 5.40954 9.95594 5.16045 10.6408C4.91137 11.3256 4.81499 12.0566 4.87807 12.7826C4.94115 13.5086 5.16216 14.212 5.52562 14.8437C5.88909 15.4753 6.38623 16.0198 6.98222 16.4391C7.57822 16.8584 8.25868 17.1424 8.97594 17.2712C9.69321 17.3999 10.4299 17.3703 11.1346 17.1845C11.8392 16.9986 12.4947 16.6609 13.0551 16.1952C13.6156 15.7294 14.0674 15.1467 14.3791 14.488C14.441 14.3567 14.5307 14.2405 14.6421 14.1474C14.7534 14.0543 14.8837 13.9866 15.0239 13.9489C15.164 13.9112 15.3107 13.9045 15.4537 13.9292C15.5967 13.9539 15.7327 14.0095 15.8521 14.092L19.6381 16.712L20.4621 15.889L13.3911 8.818C12.4534 7.88034 11.1816 7.35357 9.85556 7.35357C8.52949 7.35357 7.25774 7.88034 6.32006 8.818ZM11.9761 10.232C12.2584 10.5097 12.4829 10.8406 12.6368 11.2055C12.7906 11.5704 12.8706 11.9622 12.8723 12.3582C12.874 12.7542 12.7972 13.1466 12.6464 13.5128C12.4957 13.8791 12.2739 14.2118 11.9939 14.4918C11.7139 14.7719 11.3812 14.9938 11.0151 15.1446C10.6489 15.2955 10.2565 15.3723 9.86047 15.3707C9.46445 15.3692 9.07266 15.2892 8.7077 15.1355C8.34274 14.9817 8.01183 14.7573 7.73406 14.475C7.1714 13.9123 6.8553 13.1492 6.8553 12.3535C6.8553 11.5578 7.1714 10.7947 7.73406 10.232C8.29671 9.66934 9.05984 9.35325 9.85556 9.35325C10.6513 9.35325 11.4144 9.66934 11.9771 10.232M9.14906 11.647C9.05355 11.7392 8.97736 11.8496 8.92495 11.9716C8.87254 12.0936 8.84496 12.2248 8.84381 12.3576C8.84265 12.4904 8.86795 12.6221 8.91823 12.745C8.96852 12.8679 9.04277 12.9795 9.13666 13.0734C9.23055 13.1673 9.34221 13.2415 9.4651 13.2918C9.588 13.3421 9.71968 13.3674 9.85246 13.3663C9.98524 13.3651 10.1165 13.3375 10.2385 13.2851C10.3605 13.2327 10.4708 13.1565 10.5631 13.061C10.7507 12.8735 10.8562 12.6191 10.8563 12.3539C10.8564 12.0886 10.7511 11.8341 10.5636 11.6465C10.376 11.4589 10.1217 11.3534 9.85641 11.3533C9.59114 11.3532 9.3367 11.4585 9.14906 11.646M5.26006 6.342C5.21393 6.29425 5.15876 6.25615 5.09776 6.22995C5.03676 6.20374 4.97115 6.18995 4.90476 6.18937C4.83837 6.1888 4.77253 6.20145 4.71108 6.22659C4.64963 6.25173 4.5938 6.28886 4.54686 6.3358C4.49991 6.38275 4.46279 6.43857 4.43764 6.50002C4.4125 6.56147 4.39985 6.62731 4.40043 6.6937C4.40101 6.76009 4.4148 6.8257 4.441 6.8867C4.46721 6.9477 4.5053 7.00288 4.55306 7.049C4.64736 7.14008 4.77366 7.19048 4.90476 7.18934C5.03585 7.1882 5.16126 7.13561 5.25396 7.04291C5.34667 6.95021 5.39925 6.8248 5.40039 6.6937C5.40153 6.5626 5.35114 6.4363 5.26006 6.342Z" fill="#413D49"/>
</svg>
